<svg xmlns="http://www.w3.org/2000/svg" version="1.1" xmlns:xlink="http://www.w3.org/1999/xlink" xmlns:svgjs="http://svgjs.dev/svgjs" width="1500" height="935" viewBox="0 0 1500 935"><g transform="matrix(1,0,0,1,-0.9090909090909918,0.3785425101214628)"><svg viewBox="0 0 396 247" data-background-color="#ffffff" preserveAspectRatio="xMidYMid meet" height="935" width="1500" xmlns="http://www.w3.org/2000/svg" xmlns:xlink="http://www.w3.org/1999/xlink"><g id="tight-bounds" transform="matrix(1,0,0,1,0.2400000000000091,-0.09999999999999432)"><svg viewBox="0 0 395.52 247.2" height="247.2" width="395.52"><g><svg></svg></g><g><svg viewBox="0 0 395.52 247.2" height="247.2" width="395.52"><g transform="matrix(1,0,0,1,75.54432,111.82977908182279)"><svg viewBox="0 0 244.43135999999998 23.540441836354397" height="23.540441836354397" width="244.43135999999998"><g><svg viewBox="0 0 244.43135999999998 23.540441836354397" height="23.540441836354397" width="244.43135999999998"><g><svg viewBox="0 0 244.43135999999998 23.540441836354397" height="23.540441836354397" width="244.43135999999998"><g><svg viewBox="0 0 244.43135999999998 23.540441836354397" height="23.540441836354397" width="244.43135999999998"><g id="textblocktransform"><svg viewBox="0 0 244.43135999999998 23.540441836354397" height="23.540441836354397" width="244.43135999999998" id="textblock"><g><svg viewBox="0 0 244.43135999999998 23.540441836354397" height="23.540441836354397" width="244.43135999999998"><g transform="matrix(1,0,0,1,0,0)"><svg width="244.43135999999998" viewBox="3.5 -43.65 590.25 56.849999999999994" height="23.540441836354397" data-palette-color="#030303"><path d="M24.75-8.75Q24.75-10.3 23.5-11.65 22.25-13 20.4-14.13 18.55-15.25 15.4-16.9L15.4-16.9Q11.65-18.85 9.33-20.3 7-21.75 5.38-23.73 3.75-25.7 3.75-28.1L3.75-28.1Q3.75-30.6 5.88-33.48 8-36.35 11.1-38.33 14.2-40.3 16.8-40.3L16.8-40.3Q19.95-40.3 24.13-39.55 28.3-38.8 30.25-37.95L30.25-37.95 30.25-28 27.8-28Q25.45-32.05 22.6-34.3 19.75-36.55 16.6-36.55L16.6-36.55Q13.9-36.55 12.35-34.88 10.8-33.2 10.8-30.55L10.8-30.55Q10.8-28.9 12.08-27.48 13.35-26.05 15.25-24.9 17.15-23.75 20.35-22.1L20.35-22.1Q24.15-20.1 26.38-18.7 28.6-17.3 30.18-15.4 31.75-13.5 31.75-11.15L31.75-11.15Q31.75-8.65 29.48-5.78 27.2-2.9 23.9-0.93 20.6 1.05 17.9 1.05L17.9 1.05Q14.6 1.05 10.05 0.3 5.5-0.45 3.5-1.3L3.5-1.3 3.5-11.25 5.95-11.25Q8.45-7.2 11.63-4.95 14.8-2.7 18.15-2.7L18.15-2.7Q20.15-2.7 21.65-3.55 23.15-4.4 23.95-5.78 24.75-7.15 24.75-8.75L24.75-8.75ZM69.1-2.2L67.95 0.05 58.1 0.05 58.1-16.65Q58.1-19.3 57.25-20.38 56.4-21.45 54.3-21.45L54.3-21.45Q52.75-21.45 51.2-20.9 49.65-20.35 47.6-18.8L47.6-18.8 47.6-3.85 52.1-2.2 50.95 0.05 36.65 0.05 36.65-1.75 41.1-5.3 41.1-35.4 36.65-38.5 36.65-40.3 45.45-43.65 47.6-43.65 47.6-21.5 54.2-26.75Q55.35-27.15 57-27.15L57-27.15Q60.5-27.15 62.55-25.08 64.6-23 64.6-19.45L64.6-19.45 64.6-3.9 69.1-2.2ZM88.6-21.5Q87.55-21.5 86.4-20.95 85.25-20.4 83.8-18.95L83.8-18.95 83.8-4.3 90.9-2.2 89.8 0.05 72.85 0.05 72.85-1.75 77.3-5.3 77.3-18.9 72.85-21.55 72.85-23.35 81.75-27.6 83.4-21.55 88.45-26.75Q89.6-27.15 91.15-27.15L91.15-27.15Q93-27.15 94.37-26.2 95.75-25.25 96.45-23.5L96.45-23.5 92.85-19 90.7-19Q90.5-20.35 90-20.93 89.5-21.5 88.6-21.5L88.6-21.5ZM125.44-6.8L116.84 0.05Q114.69 0.5 111.64 0.5L111.64 0.5Q108.29 0.5 105.62-1.23 102.94-2.95 101.42-5.9 99.89-8.85 99.89-12.45L99.89-12.45Q99.89-16.35 102.27-19.73 104.64-23.1 108.24-25.13 111.84-27.15 115.19-27.15L115.19-27.15Q120.04-27.15 122.72-23.35 125.39-19.55 125.34-13.2L125.34-13.2 106.94-13.2Q107.29-9.2 109.24-6.68 111.19-4.15 114.54-4.15L114.54-4.15Q117.84-4.15 123.94-8.85L123.94-8.85 125.44-6.8ZM112.34-22.6Q107.19-22.6 106.94-15.5L106.94-15.5 118.19-15.5Q117.74-18.05 117.27-19.45 116.79-20.85 115.64-21.73 114.49-22.6 112.29-22.6L112.29-22.6 112.34-22.6ZM158.39-26.65L158.39-24.85 145.74 0 135.04 13.2 132.89 11.5Q135.64 8.45 137.12 6.15 138.59 3.85 139.19 1.55 139.79-0.75 139.84-3.85L139.84-3.85 133.69-18.85 128.99-21.6 128.99-23.4 138.04-27.6 139.94-20.05 145.94-5.5 152.79-19.55 146.04-24.4 147.14-26.65 158.39-26.65ZM189.39-2.25L188.29 0 178.39 0 178.39-4.35 172.74 0.1Q171.74 0.5 170.24 0.5L170.24 0.5Q165.84 0.5 163.89-1.68 161.94-3.85 161.94-6.95L161.94-6.95Q161.94-8.75 163.19-10.53 164.44-12.3 166.84-13.9L166.84-13.9 178.39-13.9 178.39-16.6Q178.39-22.45 172.14-22.45L172.14-22.45Q168.99-22.45 164.24-18.9L164.24-18.9 162.74-21 169.89-26.65Q172.19-27.15 174.89-27.15L174.89-27.15Q179.64-27.15 182.26-24.85 184.89-22.55 184.89-18.2L184.89-18.2 184.89-4 189.39-2.25ZM172.04-4.25Q174.99-4.25 178.39-6.9L178.39-6.9 178.39-11.6 169.69-11.6Q169.09-10.85 168.84-10.1 168.59-9.35 168.59-8.45L168.59-8.45Q168.59-6.7 169.54-5.48 170.49-4.25 172.04-4.25L172.04-4.25ZM225.64-2.2L224.49 0.05 214.64 0.05 214.64-16.65Q214.64-19.3 213.79-20.38 212.94-21.45 210.84-21.45L210.84-21.45Q209.29-21.45 207.74-20.9 206.19-20.35 204.14-18.8L204.14-18.8 204.14-3.85 208.64-2.2 207.49 0.05 193.19 0.05 193.19-1.75 197.64-5.3 197.64-18.9 193.19-21.55 193.19-23.35 202.09-27.6 203.84-21.25 210.74-26.75Q211.89-27.15 213.54-27.15L213.54-27.15Q217.04-27.15 219.09-25.08 221.14-23 221.14-19.45L221.14-19.45 221.14-3.9 225.64-2.2ZM245.13-5.6Q245.13-6.9 243.63-8.03 242.13-9.15 239.03-10.8L239.03-10.8Q236.38-12.2 234.81-13.2 233.23-14.2 232.11-15.53 230.98-16.85 230.98-18.45L230.98-18.45Q230.98-20.25 232.53-22.3 234.08-24.35 236.36-25.75 238.63-27.15 240.53-27.15L240.53-27.15Q242.88-27.15 245.98-26.58 249.08-26 250.48-25.3L250.48-25.3 250.48-17.45 248.33-17.45Q246.78-20.4 244.73-22.08 242.68-23.75 240.48-23.75L240.48-23.75Q239.03-23.75 238.16-22.98 237.28-22.2 237.28-21.05L237.28-21.05Q237.28-19.6 238.83-18.45 240.38-17.3 243.63-15.55L243.63-15.55Q246.18-14.25 247.73-13.28 249.28-12.3 250.38-11.03 251.48-9.75 251.48-8.2L251.48-8.2Q251.48-6.35 249.86-4.33 248.23-2.3 245.91-0.9 243.58 0.5 241.63 0.5L241.63 0.5Q239.13 0.5 235.66-0.1 232.18-0.7 230.73-1.35L230.73-1.35 230.73-9.25 232.88-9.25Q234.58-6.25 236.93-4.58 239.28-2.9 241.68-2.9L241.68-2.9Q243.23-2.9 244.18-3.7 245.13-4.5 245.13-5.6L245.13-5.6ZM288.78-2.2L287.63 0.05 277.78 0.05 277.78-16.65Q277.78-19.3 276.93-20.38 276.08-21.45 273.98-21.45L273.98-21.45Q272.43-21.45 270.88-20.9 269.33-20.35 267.28-18.8L267.28-18.8 267.28-3.85 271.78-2.2 270.63 0.05 256.33 0.05 256.33-1.75 260.78-5.3 260.78-35.4 256.33-38.5 256.33-40.3 265.13-43.65 267.28-43.65 267.28-21.5 273.88-26.75Q275.03-27.15 276.68-27.15L276.68-27.15Q280.18-27.15 282.23-25.08 284.28-23 284.28-19.45L284.28-19.45 284.28-3.9 288.78-2.2ZM307.98-2.25L306.83 0 292.53 0 292.53-1.8 296.98-5.35 296.98-19.35 292.53-22.4 292.53-24.2 301.33-27.6 303.48-27.6 303.48-3.9 307.98-2.25ZM300.03-42.6Q301.68-42.6 302.73-41.43 303.78-40.25 303.78-38.55L303.78-38.55Q303.78-37.35 303.03-36.27 302.28-35.2 301.13-34.58 299.98-33.95 298.88-33.95L298.88-33.95Q297.28-33.95 296.23-35.1 295.18-36.25 295.18-38L295.18-38Q295.18-39.2 295.93-40.28 296.68-41.35 297.83-41.98 298.98-42.6 300.03-42.6L300.03-42.6ZM367.57-37.5L362.72-33.75 348.82-1.6 342.97 0.95 328.42-34.15 323.42-37.05 324.52-39.3 340.42-39.3 340.42-37.5 335.57-33.95 347.37-5.4 359.62-33.9 351.07-37.05 352.17-39.3 367.57-39.3 367.57-37.5ZM393.17-2.25L392.07 0 382.17 0 382.17-4.35 376.52 0.1Q375.52 0.5 374.02 0.5L374.02 0.5Q369.62 0.5 367.67-1.68 365.72-3.85 365.72-6.95L365.72-6.95Q365.72-8.75 366.97-10.53 368.22-12.3 370.62-13.9L370.62-13.9 382.17-13.9 382.17-16.6Q382.17-22.45 375.92-22.45L375.92-22.45Q372.77-22.45 368.02-18.9L368.02-18.9 366.52-21 373.67-26.65Q375.97-27.15 378.67-27.15L378.67-27.15Q383.42-27.15 386.05-24.85 388.67-22.55 388.67-18.2L388.67-18.2 388.67-4 393.17-2.25ZM375.82-4.25Q378.77-4.25 382.17-6.9L382.17-6.9 382.17-11.6 373.47-11.6Q372.87-10.85 372.62-10.1 372.37-9.35 372.37-8.45L372.37-8.45Q372.37-6.7 373.32-5.48 374.27-4.25 375.82-4.25L375.82-4.25ZM412.72-5.6Q412.72-6.9 411.22-8.03 409.72-9.15 406.62-10.8L406.62-10.8Q403.97-12.2 402.39-13.2 400.82-14.2 399.69-15.53 398.57-16.85 398.57-18.45L398.57-18.45Q398.57-20.25 400.12-22.3 401.67-24.35 403.94-25.75 406.22-27.15 408.12-27.15L408.12-27.15Q410.47-27.15 413.57-26.58 416.67-26 418.07-25.3L418.07-25.3 418.07-17.45 415.92-17.45Q414.37-20.4 412.32-22.08 410.27-23.75 408.07-23.75L408.07-23.75Q406.62-23.75 405.74-22.98 404.87-22.2 404.87-21.05L404.87-21.05Q404.87-19.6 406.42-18.45 407.97-17.3 411.22-15.55L411.22-15.55Q413.77-14.25 415.32-13.28 416.87-12.3 417.97-11.03 419.07-9.75 419.07-8.2L419.07-8.2Q419.07-6.35 417.44-4.33 415.82-2.3 413.49-0.9 411.17 0.5 409.22 0.5L409.22 0.5Q406.72 0.5 403.24-0.1 399.77-0.7 398.32-1.35L398.32-1.35 398.32-9.25 400.47-9.25Q402.17-6.25 404.52-4.58 406.87-2.9 409.27-2.9L409.27-2.9Q410.82-2.9 411.77-3.7 412.72-4.5 412.72-5.6L412.72-5.6ZM456.37-2.2L455.21 0.05 445.37 0.05 445.37-16.65Q445.37-19.3 444.51-20.38 443.66-21.45 441.56-21.45L441.56-21.45Q440.01-21.45 438.46-20.9 436.91-20.35 434.87-18.8L434.87-18.8 434.87-3.85 439.37-2.2 438.21 0.05 423.91 0.05 423.91-1.75 428.37-5.3 428.37-35.4 423.91-38.5 423.91-40.3 432.71-43.65 434.87-43.65 434.87-21.5 441.46-26.75Q442.62-27.15 444.26-27.15L444.26-27.15Q447.76-27.15 449.81-25.08 451.87-23 451.87-19.45L451.87-19.45 451.87-3.9 456.37-2.2ZM475.56-2.25L474.41 0 460.11 0 460.11-1.8 464.56-5.35 464.56-19.35 460.11-22.4 460.11-24.2 468.91-27.6 471.06-27.6 471.06-3.9 475.56-2.25ZM467.61-42.6Q469.26-42.6 470.31-41.43 471.36-40.25 471.36-38.55L471.36-38.55Q471.36-37.35 470.61-36.27 469.86-35.2 468.71-34.58 467.56-33.95 466.46-33.95L466.46-33.95Q464.86-33.95 463.81-35.1 462.76-36.25 462.76-38L462.76-38Q462.76-39.2 463.51-40.28 464.26-41.35 465.41-41.98 466.56-42.6 467.61-42.6L467.61-42.6ZM495.51-5.6Q495.51-6.9 494.01-8.03 492.51-9.15 489.41-10.8L489.41-10.8Q486.76-12.2 485.18-13.2 483.61-14.2 482.48-15.53 481.36-16.85 481.36-18.45L481.36-18.45Q481.36-20.25 482.91-22.3 484.46-24.35 486.73-25.75 489.01-27.15 490.91-27.15L490.91-27.15Q493.26-27.15 496.36-26.58 499.46-26 500.86-25.3L500.86-25.3 500.86-17.45 498.71-17.45Q497.16-20.4 495.11-22.08 493.06-23.75 490.86-23.75L490.86-23.75Q489.41-23.75 488.53-22.98 487.66-22.2 487.66-21.05L487.66-21.05Q487.66-19.6 489.21-18.45 490.76-17.3 494.01-15.55L494.01-15.55Q496.56-14.25 498.11-13.28 499.66-12.3 500.76-11.03 501.86-9.75 501.86-8.2L501.86-8.2Q501.86-6.35 500.23-4.33 498.61-2.3 496.28-0.9 493.96 0.5 492.01 0.5L492.01 0.5Q489.51 0.5 486.03-0.1 482.56-0.7 481.11-1.35L481.11-1.35 481.11-9.25 483.26-9.25Q484.96-6.25 487.31-4.58 489.66-2.9 492.06-2.9L492.06-2.9Q493.61-2.9 494.56-3.7 495.51-4.5 495.51-5.6L495.51-5.6ZM527.51-3.9L522.46 0.1Q521.21 0.5 519.41 0.5L519.41 0.5Q515.11 0.5 513.13-1.68 511.16-3.85 511.16-8.4L511.16-8.4 511.16-22.85 505.76-22.85 505.76-25 515.51-36.2 517.66-36.2 517.66-25.15 526.66-25.15 526.66-22.85 517.66-22.85 517.66-8Q517.66-4.05 521.56-4.05L521.56-4.05Q522.61-4.05 523.56-4.48 524.51-4.9 526.01-6L526.01-6 527.51-3.9ZM562.3-2.2L561.15 0.05 551.3 0.05 551.3-16.65Q551.3-19.3 550.45-20.38 549.6-21.45 547.5-21.45L547.5-21.45Q545.95-21.45 544.4-20.9 542.85-20.35 540.8-18.8L540.8-18.8 540.8-3.85 545.3-2.2 544.15 0.05 529.85 0.05 529.85-1.75 534.3-5.3 534.3-35.4 529.85-38.5 529.85-40.3 538.65-43.65 540.8-43.65 540.8-21.5 547.4-26.75Q548.55-27.15 550.2-27.15L550.2-27.15Q553.7-27.15 555.75-25.08 557.8-23 557.8-19.45L557.8-19.45 557.8-3.9 562.3-2.2ZM593.75-2.25L592.65 0 582.75 0 582.75-4.35 577.1 0.1Q576.1 0.5 574.6 0.5L574.6 0.5Q570.2 0.5 568.25-1.68 566.3-3.85 566.3-6.95L566.3-6.95Q566.3-8.75 567.55-10.53 568.8-12.3 571.2-13.9L571.2-13.9 582.75-13.9 582.75-16.6Q582.75-22.45 576.5-22.45L576.5-22.45Q573.35-22.45 568.6-18.9L568.6-18.9 567.1-21 574.25-26.65Q576.55-27.15 579.25-27.15L579.25-27.15Q584-27.15 586.63-24.85 589.25-22.55 589.25-18.2L589.25-18.2 589.25-4 593.75-2.25ZM576.4-4.25Q579.35-4.25 582.75-6.9L582.75-6.9 582.75-11.6 574.05-11.6Q573.45-10.85 573.2-10.1 572.95-9.35 572.95-8.45L572.95-8.45Q572.95-6.7 573.9-5.48 574.85-4.25 576.4-4.25L576.4-4.25Z" opacity="1" transform="matrix(1,0,0,1,0,0)" fill="#030303" class="wordmark-text-0" data-fill-palette-color="primary" id="text-0"></path></svg></g></svg></g></svg></g></svg></g></svg></g></svg></g></svg></g><path d="M170.583 105.83L170.583 40.531 4.446 40.531 4.446 206.669 170.583 206.669 170.583 141.37 168.46 141.37 168.46 204.546 6.569 204.546 6.569 42.654 168.46 42.654 168.46 105.83Z" fill="#030303" stroke="transparent" data-fill-palette-color="tertiary"></path></svg></g><defs></defs></svg><rect width="395.52" height="247.2" fill="none" stroke="none" visibility="hidden"></rect></g></svg></g></svg>